<?xml version="1.0" standalone="no"?>
<!DOCTYPE svg PUBLIC "-//W3C//DTD SVG 20010904//EN"
 "http://www.w3.org/TR/2001/REC-SVG-20010904/DTD/svg10.dtd">
<svg version="1.0" xmlns="http://www.w3.org/2000/svg"
 width="1444.000000pt" height="488.000000pt" viewBox="0 0 1444.000000 488.000000"
 preserveAspectRatio="xMidYMid meet">

<g transform="translate(0.000000,488.000000) scale(0.100000,-0.100000)"
fill="#000000" stroke="none">
<path d="M4848 4843 c-45 -18 -48 -34 -10 -59 54 -35 221 -184 227 -203 3 -10
1 -31 -5 -46 -26 -68 -227 -345 -339 -467 -65 -70 -71 -82 -45 -92 31 -12 114
-7 114 7 0 8 27 52 60 98 86 121 77 118 401 119 l267 0 83 -74 c46 -40 104
-94 129 -120 40 -41 49 -46 90 -46 83 0 133 67 63 84 -38 10 -301 209 -443
337 -136 122 -427 412 -453 452 -15 22 -25 27 -60 26 -23 0 -59 -7 -79 -16z
m448 -452 c113 -95 133 -116 118 -122 -11 -4 -105 -8 -210 -8 -145 -1 -194 2
-202 12 -8 9 8 41 66 124 42 62 80 111 84 110 4 -1 69 -54 144 -116z"/>
<path d="M6240 4836 c-103 -23 -121 -40 -80 -74 19 -15 23 -33 31 -132 12
-150 -6 -552 -27 -594 -8 -16 -14 -35 -14 -42 0 -18 66 -36 115 -32 38 3 40 5
38 33 -11 166 -15 300 -9 339 7 48 8 48 39 42 57 -11 287 -130 502 -258 278
-166 348 -202 378 -195 32 9 107 64 107 80 0 8 -24 17 -66 24 -52 9 -111 36
-302 136 -406 214 -512 272 -512 279 0 4 32 17 72 29 88 28 146 70 176 129 39
78 24 137 -50 190 -96 70 -229 85 -398 46z m261 -56 c67 -19 88 -92 50 -176
-23 -51 -44 -66 -143 -104 -108 -42 -108 -42 -108 33 0 60 15 184 26 219 10
32 106 47 175 28z"/>
<path d="M7558 4839 c-40 -20 -47 -33 -25 -42 23 -9 226 -186 238 -208 17 -32
5 -60 -84 -192 -98 -145 -178 -248 -261 -335 -58 -61 -60 -64 -42 -78 11 -8
40 -14 65 -14 41 0 48 3 58 28 25 54 118 167 153 184 31 16 68 18 302 18 l267
0 73 -62 c39 -34 98 -88 131 -120 53 -52 63 -58 102 -58 45 0 95 29 95 55 0 8
-19 23 -42 33 -47 21 -216 145 -343 252 -125 105 -471 436 -510 488 -19 26
-39 53 -45 60 -16 18 -90 14 -132 -9z m456 -453 c117 -100 126 -110 106 -118
-13 -5 -109 -7 -214 -6 -161 3 -191 5 -194 18 -4 23 146 232 161 223 7 -4 70
-57 141 -117z"/>
<path d="M8818 4797 c-26 -18 -48 -37 -48 -44 0 -6 22 -19 49 -28 27 -9 61
-27 75 -40 24 -22 26 -30 26 -114 0 -135 -20 -440 -32 -485 -5 -22 -20 -55
-33 -74 -13 -20 -21 -40 -18 -45 3 -6 33 -7 72 -3 86 8 94 18 86 116 -7 80 9
487 18 497 7 6 206 -164 394 -335 98 -90 117 -112 148 -177 20 -41 40 -75 44
-75 11 0 87 56 97 72 5 7 10 99 10 203 2 150 7 215 25 310 12 66 22 136 23
155 l1 35 -67 0 c-87 0 -95 -8 -79 -77 7 -29 15 -98 18 -153 6 -103 -11 -303
-26 -318 -13 -13 -299 237 -577 506 -80 77 -118 107 -135 106 -13 0 -45 -15
-71 -32z"/>
<path d="M10576 4805 c-236 -45 -396 -197 -426 -403 -38 -268 167 -447 470
-412 95 11 122 12 138 2 6 -5 19 -35 28 -68 19 -76 34 -92 70 -75 27 12 27 12
20 89 -3 42 -9 132 -13 199 -7 133 -12 144 -65 124 -21 -8 -27 -20 -37 -69
-13 -67 -26 -82 -96 -114 -39 -17 -68 -22 -135 -22 -131 0 -198 32 -242 118
-29 56 -31 180 -3 251 71 186 235 325 388 328 58 2 69 -1 110 -30 53 -39 74
-41 111 -12 37 29 31 59 -16 82 -52 25 -199 31 -302 12z"/>
<path d="M3593 4780 c-18 -11 -33 -25 -33 -32 0 -7 17 -27 37 -45 l38 -31 0
-349 0 -348 36 -3 c59 -5 63 9 69 197 l5 166 40 7 c44 8 434 23 436 17 1 -2 6
-85 13 -184 l11 -180 32 -3 c48 -5 55 18 62 207 l6 166 30 0 c22 0 33 7 43 28
18 36 9 47 -40 47 l-41 0 6 104 c4 58 14 124 23 148 28 77 26 83 -30 80 -27
-2 -63 -9 -80 -16 l-31 -13 0 -154 0 -154 -239 -3 -239 -2 6 134 c4 74 12 146
19 161 14 31 2 46 -51 64 -50 16 -92 13 -128 -9z"/>
<path d="M10353 3557 c-98 -90 -179 -169 -180 -177 -2 -8 1 -22 6 -30 13 -19
39 -6 236 112 162 97 189 118 212 161 13 26 13 31 -4 49 -19 21 -65 48 -82 48
-5 0 -90 -73 -188 -163z"/>
<path d="M3951 3659 c-60 -26 -147 -116 -160 -164 -6 -22 -11 -80 -11 -130 0
-126 -16 -248 -38 -298 -11 -24 -40 -71 -65 -105 -82 -112 -116 -248 -96 -389
19 -140 72 -263 186 -438 85 -129 120 -198 134 -266 18 -85 6 -311 -25 -449
-51 -231 -95 -534 -103 -705 -5 -114 -3 -141 17 -220 51 -206 105 -315 156
-315 32 0 94 62 200 200 95 123 166 200 182 200 23 0 12 -32 -28 -82 -48 -61
-64 -114 -57 -190 10 -109 76 -210 170 -260 36 -20 57 -23 142 -23 89 0 106 3
157 28 119 58 188 160 188 276 0 104 -14 134 -116 242 -78 83 -93 104 -104
149 -42 176 74 293 509 510 536 268 883 378 1291 407 111 7 117 -1 64 -84 -84
-132 -298 -312 -784 -658 -329 -234 -511 -375 -484 -375 34 1 377 202 619 363
281 187 494 359 719 577 216 211 336 366 336 435 0 52 -75 143 -235 288 -259
233 -386 306 -765 440 -434 153 -553 236 -676 472 -110 210 -261 338 -463 390
-90 23 -227 21 -316 -5 -112 -32 -124 -30 -206 45 -73 67 -178 126 -256 143
-33 8 -50 6 -82 -9z m140 -234 c28 -14 84 -57 124 -95 41 -37 87 -71 102 -74
25 -6 83 3 228 34 63 14 175 11 238 -5 167 -43 271 -143 390 -374 60 -118 101
-174 175 -242 138 -126 288 -201 632 -316 164 -54 305 -119 380 -175 79 -60
205 -174 241 -219 50 -63 33 -72 -221 -109 -579 -85 -908 -201 -1390 -490
-256 -153 -412 -272 -690 -525 -155 -141 -241 -234 -274 -297 -31 -58 -63 -59
-91 -3 -18 36 -20 60 -20 245 1 219 20 383 70 596 45 191 58 285 58 434 1 220
-18 286 -138 485 -117 195 -160 290 -171 382 -15 120 21 194 141 294 90 74
100 97 73 170 -58 159 -60 231 -6 281 38 36 82 37 149 3z m577 -2961 c55 -43
74 -81 69 -142 -2 -32 -12 -63 -24 -80 -43 -58 -188 -91 -253 -57 -56 29 -61
135 -11 233 21 42 43 64 85 86 26 13 33 13 65 0 19 -8 50 -26 69 -40z"/>
<path d="M7515 3613 c-43 -22 -131 -109 -175 -173 -88 -129 -136 -261 -127
-351 8 -68 56 -199 160 -434 142 -323 167 -424 125 -504 -47 -90 -120 -111
-229 -67 -110 44 -136 32 -124 -55 9 -64 32 -89 111 -119 123 -47 216 -24 289
71 111 145 134 350 65 564 -17 55 -70 196 -116 313 -95 240 -109 291 -101 373
6 67 27 114 70 159 45 46 101 68 209 83 52 8 99 16 105 20 22 14 26 67 7 88
-40 44 -207 65 -269 32z"/>
<path d="M8226 3540 c-44 -53 -56 -141 -22 -169 6 -5 56 -14 111 -20 108 -12
498 -41 541 -41 26 0 26 -1 -22 -57 -177 -211 -464 -524 -675 -738 -92 -93
-172 -183 -178 -198 -6 -16 -11 -53 -11 -82 0 -47 4 -59 31 -90 56 -63 181
-127 389 -198 246 -85 955 -231 1001 -207 37 20 149 174 149 205 0 32 -49 29
-129 -9 -67 -31 -86 -36 -153 -36 -281 0 -960 215 -1073 340 -14 16 -17 26 -9
45 5 13 189 225 409 471 512 573 525 588 525 631 0 19 -7 48 -16 65 -14 28
-18 29 -47 22 -45 -12 -294 -6 -469 11 -133 13 -154 18 -217 50 -39 19 -79 35
-90 35 -11 0 -31 -14 -45 -30z"/>
<path d="M10235 3192 c-291 -86 -472 -408 -452 -801 7 -138 24 -207 79 -321
31 -65 57 -101 112 -156 109 -109 222 -152 362 -141 205 18 387 158 475 367
109 259 85 658 -52 871 -45 71 -130 144 -197 170 -78 31 -240 36 -327 11z
m215 -144 c151 -46 246 -208 270 -459 37 -389 -108 -649 -365 -652 -99 -1
-160 26 -235 102 -105 107 -156 237 -167 421 -22 388 219 673 497 588z"/>
<path d="M7951 1506 c-39 -46 -71 -85 -71 -87 0 -2 26 -2 57 0 55 3 63 7 153
79 52 41 99 79 105 84 5 4 -32 8 -82 8 l-92 0 -70 -84z"/>
<path d="M10360 1528 c-30 -35 -63 -73 -74 -85 l-19 -23 59 0 59 1 103 84 104
85 -90 0 -89 0 -53 -62z"/>
<path d="M9278 1568 c14 -14 17 -318 3 -318 -5 0 -14 6 -20 14 -6 8 -35 24
-64 37 -46 21 -68 23 -177 23 -87 0 -141 -5 -176 -16 -131 -41 -229 -112 -265
-192 -25 -55 -25 -157 0 -212 39 -87 124 -155 241 -195 86 -29 241 -32 317 -5
75 25 268 110 271 119 1 4 2 176 2 382 l0 375 -72 0 c-56 0 -69 -3 -60 -12z
m-112 -348 c16 -6 50 -25 77 -42 l47 -30 0 -145 0 -144 -73 -34 c-101 -47
-155 -58 -245 -53 -128 8 -250 78 -282 164 -14 37 -12 109 4 148 32 76 130
141 232 154 66 8 195 -1 240 -18z"/>
<path d="M9670 1513 c-72 -20 -83 -70 -22 -102 41 -22 112 10 112 49 0 31 -54
63 -90 53z"/>
<path d="M7398 1324 c-78 -15 -121 -35 -142 -66 -16 -22 -16 -22 -16 15 l0 37
-65 0 c-62 0 -65 -1 -55 -19 6 -12 10 -121 10 -283 0 -222 -2 -267 -16 -286
l-15 -22 82 0 c74 0 80 2 73 18 -11 22 -18 299 -9 370 11 88 64 132 185 154
l60 10 0 44 c0 29 -4 44 -12 43 -7 -1 -43 -7 -80 -15z"/>
<path d="M7880 1320 c-205 -38 -345 -185 -327 -342 14 -113 99 -203 249 -260
147 -56 397 -36 457 36 21 25 33 19 29 -16 l-3 -33 73 -3 74 -3 -16 23 c-22
31 -24 433 -2 463 13 19 9 22 -77 54 -204 75 -230 82 -322 86 -49 2 -110 0
-135 -5z m304 -120 c41 -17 80 -37 86 -45 7 -8 10 -63 8 -156 l-3 -144 -78
-40 c-72 -36 -86 -40 -176 -43 -113 -5 -182 11 -249 56 -80 53 -115 135 -98
228 9 45 81 120 147 152 98 47 237 44 363 -8z"/>
<path d="M10234 1316 c-188 -43 -314 -168 -314 -311 0 -184 189 -319 445 -319
163 0 276 44 369 144 154 167 69 380 -190 471 -77 27 -226 34 -310 15z m218
-80 c77 -17 114 -34 163 -78 54 -47 78 -101 73 -163 -6 -70 -39 -119 -110
-166 -209 -135 -538 -27 -538 176 0 107 95 199 240 231 73 16 93 16 172 0z"/>
<path d="M9608 1298 c16 -16 17 -550 2 -579 -10 -18 -7 -19 71 -19 74 0 80 2
73 18 -5 9 -10 146 -12 305 l-3 287 -71 0 c-56 0 -69 -3 -60 -12z"/>
<path d="M7150 320 c0 -165 1 -180 18 -180 16 0 17 14 14 180 -2 150 -5 180
-17 180 -13 0 -15 -29 -15 -180z"/>
<path d="M8862 465 c-30 -48 -5 -48 46 0 l37 34 -30 1 c-23 0 -35 -8 -53 -35z"/>
<path d="M10070 320 c0 -173 1 -180 20 -180 19 0 20 7 20 93 0 92 0 93 29 110
42 25 87 22 116 -8 23 -22 25 -32 25 -110 0 -74 2 -85 18 -85 15 0 17 9 13 87
-4 98 -19 139 -57 153 -36 14 -85 12 -116 -4 l-28 -15 0 70 c0 62 -2 69 -20
69 -19 0 -20 -7 -20 -180z"/>
<path d="M10416 468 c-22 -28 -23 -34 -9 -36 8 -2 32 12 52 32 l36 36 -27 0
c-18 0 -35 -10 -52 -32z"/>
<path d="M7492 463 c2 -10 10 -18 18 -18 8 0 16 8 18 18 2 12 -3 17 -18 17
-15 0 -20 -5 -18 -17z"/>
<path d="M7570 466 c0 -8 5 -18 10 -21 13 -8 42 14 34 26 -9 15 -44 10 -44 -5z"/>
<path d="M8080 466 c0 -8 5 -18 10 -21 13 -8 42 14 34 26 -9 15 -44 10 -44 -5z"/>
<path d="M8160 466 c0 -8 5 -18 10 -21 13 -8 42 14 34 26 -9 15 -44 10 -44 -5z"/>
<path d="M7495 375 c-98 -50 -101 -176 -5 -225 69 -35 156 -19 200 38 27 34
27 110 0 144 -42 54 -134 74 -195 43z m151 -49 c44 -44 45 -83 5 -128 -26 -30
-35 -33 -84 -33 -45 0 -60 5 -81 24 -71 66 -18 171 88 171 30 0 45 -7 72 -34z"/>
<path d="M8081 373 c-95 -47 -94 -175 1 -224 113 -58 248 32 217 144 -22 82
-132 122 -218 80z m155 -47 c25 -24 34 -43 34 -66 0 -49 -55 -100 -108 -100
-113 0 -161 124 -70 180 52 32 103 27 144 -14z"/>
<path d="M8372 370 c-41 -38 -25 -72 58 -124 38 -24 48 -49 30 -71 -16 -20
-70 -19 -98 1 -21 14 -22 14 -22 -10 0 -22 5 -25 55 -31 64 -8 100 9 111 51 9
37 -10 66 -64 94 -37 20 -47 30 -47 50 0 23 4 25 43 24 34 -1 42 3 42 18 0 27
-78 25 -108 -2z"/>
<path d="M8560 370 c-11 -11 -20 -31 -20 -45 0 -24 9 -33 80 -78 80 -52 20
-112 -72 -72 -14 5 -18 2 -18 -13 0 -17 9 -22 45 -28 56 -8 103 10 111 41 10
42 0 69 -36 92 -79 51 -81 52 -69 75 9 17 18 19 50 15 34 -4 39 -2 39 14 0 28
-82 27 -110 -1z"/>
<path d="M8791 373 c-63 -31 -89 -110 -56 -172 16 -32 87 -71 126 -71 61 0 99
13 99 32 0 15 -3 17 -19 8 -49 -26 -148 -3 -171 39 -20 39 -14 41 125 41 l135
0 -10 28 c-20 53 -32 70 -70 91 -46 25 -112 27 -159 4z m164 -43 c46 -44 35
-50 -85 -50 -119 0 -132 7 -87 47 31 29 45 33 100 29 33 -2 55 -10 72 -26z"/>
<path d="M9143 375 c-63 -27 -91 -112 -58 -174 17 -35 88 -71 136 -71 19 0 47
7 63 15 37 19 41 15 26 -30 -16 -48 -57 -69 -127 -63 -45 4 -53 2 -53 -12 0
-14 11 -17 63 -19 69 -1 100 11 131 52 18 24 22 47 26 147 l5 118 -53 26 c-58
29 -110 32 -159 11z m145 -35 c30 -19 32 -23 32 -80 0 -57 -2 -61 -32 -80 -81
-49 -183 -5 -183 80 0 85 102 129 183 80z"/>
<path d="M9480 373 c-17 -12 -25 -13 -28 -5 -2 7 -10 12 -18 12 -11 0 -14 -23
-14 -120 0 -113 1 -120 20 -120 19 0 20 7 20 94 0 87 2 96 22 110 12 9 30 16
40 16 10 0 18 7 18 15 0 20 -30 19 -60 -2z"/>
<path d="M9631 373 c-96 -47 -93 -176 4 -223 44 -21 67 -24 128 -14 28 5 37
11 37 26 0 15 -3 17 -19 8 -49 -26 -148 -3 -171 39 -20 39 -14 41 125 41 l135
0 -10 28 c-20 53 -32 70 -70 91 -46 25 -112 27 -159 4z m164 -43 c46 -44 35
-50 -85 -50 -119 0 -132 7 -87 47 31 29 45 33 100 29 33 -2 55 -10 72 -26z"/>
<path d="M7260 325 l-55 -55 32 0 c19 0 43 -10 62 -26 25 -21 31 -33 31 -65 0
-35 3 -39 25 -39 14 0 25 1 25 3 0 12 -35 104 -43 115 -6 7 -23 19 -39 25
l-27 12 50 43 c50 41 50 42 23 42 -21 -1 -44 -15 -84 -55z"/>
<path d="M7770 368 c0 -10 18 -12 65 -10 36 2 65 1 65 -3 0 -4 -36 -54 -80
-111 l-81 -104 116 0 c98 0 115 2 115 16 0 13 -13 15 -82 13 -46 -1 -82 2 -80
7 1 5 33 47 70 93 37 46 71 90 75 98 6 10 -10 13 -88 13 -69 0 -95 -3 -95 -12z"/>
<path d="M10395 260 c0 -108 2 -120 18 -120 15 0 17 12 17 120 0 108 -2 120
-17 120 -16 0 -18 -12 -18 -120z"/>
<path d="M10510 328 c17 -29 47 -84 66 -122 19 -37 37 -66 40 -64 2 3 25 45
50 94 26 49 55 101 66 117 19 27 19 27 -1 27 -15 0 -31 -22 -67 -90 -25 -49
-49 -90 -53 -90 -3 0 -26 41 -51 90 -31 64 -50 90 -62 90 -16 0 -15 -7 12 -52z"/>
</g>
</svg>
